{
 "cells": [
  {
   "cell_type": "markdown",
   "id": "f094b695",
   "metadata": {},
   "source": [
    "# Paper Simulation result analysis \n",
    "\n",
    "- All replicate results are saved separately, check if they share some commonality\n"
   ]
  },
  {
   "cell_type": "markdown",
   "id": "e9b0ab93",
   "metadata": {},
   "source": [
    "## Section I, trajectory analysis"
   ]
  },
  {
   "cell_type": "code",
   "execution_count": 2,
   "id": "e51ebf90",
   "metadata": {},
   "outputs": [
    {
     "name": "stdout",
     "output_type": "stream",
     "text": [
      "['R_000', 'R_001', 'R_002']\n",
      "['.DS_Store', 'sigma_01', 'GRFrange700', 'up_startloc', 'GRFRange200', 'R30test']\n",
      "total 0\n",
      "drwxr-xr-x  3 yaolin  staff    96B Sep  5 11:41 R_000\n",
      "drwxr-xr-x  3 yaolin  staff    96B Sep  5 11:41 R_001\n",
      "drwxr-xr-x  3 yaolin  staff    96B Sep  5 11:41 R_002\n"
     ]
    },
    {
     "data": {
      "text/plain": [
       "0"
      ]
     },
     "execution_count": 2,
     "metadata": {},
     "output_type": "execute_result"
    }
   ],
   "source": [
    "from Config import Config\n",
    "from usr_func.checkfolder import checkfolder\n",
    "import numpy as np\n",
    "import matplotlib.pyplot as plt\n",
    "import os \n",
    "from tqdm import tqdm\n",
    "from matplotlib.gridspec import GridSpec\n",
    "from joblib import Parallel, delayed\n",
    "\n",
    "plt.rcParams[\"font.family\"] = \"Times New Roman\"\n",
    "plt.rcParams[\"font.size\"] = 20\n",
    "\n",
    "filepath = \"./npy/temporal/\"\n",
    "print(os.listdir(filepath))\n",
    "\n",
    "figpath = os.getcwd() + \"/../../../../OneDrive - NTNU/MASCOT_PhD/Projects/GOOGLE/Docs/fig/Sim_2DNidelva/Simulator/AnalyticalEIBV/\"\n",
    "print(os.listdir(figpath))\n",
    "\n",
    "c = Config()\n",
    "plg_b = c.get_polygon_border()\n",
    "plg_o = c.get_polygon_obstacle()\n",
    "num_steps = c.get_num_steps()\n",
    "num_replicates = c.get_num_replicates()\n",
    "\n",
    "os.system(\"ls -lh \" + filepath)"
   ]
  },
  {
   "cell_type": "code",
   "execution_count": 10,
   "id": "d684d799",
   "metadata": {},
   "outputs": [
    {
     "name": "stdout",
     "output_type": "stream",
     "text": [
      "Number of replicates:  3\n"
     ]
    }
   ],
   "source": [
    "Simulators = [\"SimulatorRRTStar\", \"SimulatorMyopic2D\"]\n",
    "sigmas_nuggets = np.array([[1., .25]])\n",
    "replicates = os.listdir(filepath)\n",
    "Nrep = 0\n",
    "for rep in replicates: \n",
    "    if rep.startswith(\"R_\"): \n",
    "        Nrep += 1\n",
    "print(\"Number of replicates: \", Nrep)\n",
    "\n",
    "sigma = 1. \n",
    "nugget = .25\n",
    "simulator = Simulators[0]\n",
    "\n",
    "for i in range(Nrep):\n",
    "    rep = \"R_{:03d}\".format(i)\n",
    "    string = \"/sigma_{:02d}/\".format(int(10*sigma)) + \"nugget_{:03d}/\".format(int(100*nugget)) + simulator + \"/\"\n",
    "    datapath = filepath + rep + string\n",
    "\n",
    "\n",
    "\n",
    "    traj = np.empty([0, 3, num_steps, 2])\n",
    "    ibv = np.empty([0, 3, num_steps])\n",
    "    rmse = np.empty([0, 3, num_steps])\n",
    "    vr = np.empty([0, 3, num_steps])\n",
    "\n",
    "\n",
    "        r_traj = np.load(datapath + \"traj.npy\").reshape(1, 3, num_steps, 2)\n",
    "        r_ibv = np.load(datapath + \"ibv.npy\").reshape(1, 3, num_steps)\n",
    "        r_vr = np.load(datapath + \"vr.npy\").reshape(1, 3, num_steps)\n",
    "        r_rmse = np.load(datapath + \"rmse.npy\").reshape(1, 3, num_steps)\n",
    "\n",
    "        traj = np.append(traj, r_traj, axis=0)\n",
    "        ibv = np.append(ibv, r_ibv, axis=0)\n",
    "        vr = np.append(vr, r_vr, axis=0)\n",
    "        rmse = np.append(rmse, r_rmse, axis=0)\n",
    "\n",
    "    savefig = figpath[:-1] + string\n",
    "    checkfolder(savefig)\n",
    "\n",
    "    for i in tqdm(range(traj.shape[2])):\n",
    "        plotf(i, \"sigma: {:.1f}, nugget: {:.2f}, simulator: {:s}\".format(sigma, nugget, simulator), filename=savefig + \"P_{:03d}.png\".format(i))\n"
   ]
  },
  {
   "cell_type": "code",
   "execution_count": 3,
   "id": "d859abb6",
   "metadata": {},
   "outputs": [
    {
     "name": "stdout",
     "output_type": "stream",
     "text": [
      "Number of replicates:  80\n"
     ]
    },
    {
     "name": "stderr",
     "output_type": "stream",
     "text": [
      "100%|██████████| 100/100 [02:34<00:00,  1.54s/it]\n",
      "100%|██████████| 100/100 [02:39<00:00,  1.59s/it]\n"
     ]
    },
    {
     "data": {
      "text/plain": [
       "[None, None]"
      ]
     },
     "execution_count": 3,
     "metadata": {},
     "output_type": "execute_result"
    }
   ],
   "source": [
    "Simulators = [\"SimulatorRRTStar\", \"SimulatorMyopic2D\"]\n",
    "# sigmas = [1.5, 1., .5, .1]\n",
    "# nuggets = [.4, .25, .1, .01]\n",
    "\n",
    "# sigmas = [1.]\n",
    "# nuggets = [.4]\n",
    "\n",
    "sigmas = [1.]\n",
    "nuggets = [.25]\n",
    "\n",
    "replicates = os.listdir(filepath)\n",
    "Nrep = 0\n",
    "for rep in replicates: \n",
    "    if rep.startswith(\"R_\"):\n",
    "        Nrep += 1\n",
    "print(\"Number of replicates: \", Nrep)\n",
    "\n",
    "\n",
    "def make_plots_total(sigma, nugget, simulator):\n",
    "    \n",
    "    def plotf(i, title, filename):\n",
    "        fig = plt.figure(figsize=(40, 24))\n",
    "        gs = GridSpec(nrows=2, ncols=3)\n",
    "\n",
    "        def plot_subplot(data, title):\n",
    "            for j in range(data.shape[0]):\n",
    "                plt.plot(data[j, :i, 1], data[j, :i, 0], 'k.-', alpha=.4)\n",
    "                ax.plot(plg_b[:, 1], plg_b[:, 0], 'r-.')\n",
    "                ax.plot(plg_o[:, 1], plg_o[:, 0], 'r-.')\n",
    "                ax.set_xlabel(\"East\")\n",
    "                ax.set_ylabel(\"North\")\n",
    "                ax.set_title(title)\n",
    "                ax.set_aspect(\"equal\")\n",
    "\n",
    "        def plotf_sim(data, steps, ylabel=\"IBV\"):\n",
    "            N = data.shape[0]\n",
    "\n",
    "            hx = np.arange(steps)\n",
    "            ax.errorbar(hx, y=np.mean(data[:, 0, :steps], axis=0), yerr=np.std(data[:, 0, :steps], axis=0)/np.sqrt(N) * 1.645, fmt=\"-o\", capsize=5,\n",
    "                                 label=\"EIBV dominant\")\n",
    "            ax.errorbar(hx, y=np.mean(data[:, 1, :steps], axis=0), yerr=np.std(data[:, 1, :steps], axis=0)/np.sqrt(N) * 1.645, fmt=\"-o\", capsize=5,\n",
    "                                 label=\"IVR dominant\")\n",
    "            ax.errorbar(hx, y=np.mean(data[:, 2, :steps], axis=0), yerr=np.std(data[:, 2, :steps], axis=0)/np.sqrt(N) * 1.645, fmt=\"-o\", capsize=5,\n",
    "                                 label=\"Equal weights\")\n",
    "            plt.legend(loc=\"lower left\")\n",
    "            plt.xlabel('Time steps')\n",
    "            plt.ylabel(ylabel)\n",
    "\n",
    "        ax = fig.add_subplot(gs[0])\n",
    "        plot_subplot(traj[:, 0, :, :], \"EIBV dominant\")\n",
    "\n",
    "        ax = fig.add_subplot(gs[1])\n",
    "        plot_subplot(traj[:, 1, :, :], \"IVR dominant\")\n",
    "\n",
    "        ax = fig.add_subplot(gs[2])\n",
    "        plot_subplot(traj[:, 2, :, :], \"Equal weights\")\n",
    "\n",
    "        ax = fig.add_subplot(gs[3])\n",
    "        plotf_sim(ibv, i, \"IBV\")\n",
    "\n",
    "        ax = fig.add_subplot(gs[4])\n",
    "        plotf_sim(vr, i, \"VR\")\n",
    "\n",
    "        ax = fig.add_subplot(gs[5])\n",
    "        plotf_sim(rmse, i, \"RMSE\")\n",
    "\n",
    "        plt.suptitle(title)\n",
    "\n",
    "        plt.savefig(filename)\n",
    "        plt.close(\"all\")\n",
    "\n",
    "    string = \"/sigma_{:02d}/\".format(int(10*sigma)) + \"nugget_{:03d}/\".format(int(100*nugget)) + simulator + \"/\"\n",
    "    traj = np.empty([0, 3, num_steps, 2])\n",
    "    ibv = np.empty([0, 3, num_steps])\n",
    "    rmse = np.empty([0, 3, num_steps])\n",
    "    vr = np.empty([0, 3, num_steps])\n",
    "\n",
    "    for i in range(Nrep):\n",
    "        rep = \"R_{:03d}\".format(i)\n",
    "        datapath = filepath + rep + string\n",
    "        r_traj = np.load(datapath + \"traj.npy\").reshape(1, 3, num_steps, 2)\n",
    "        r_ibv = np.load(datapath + \"ibv.npy\").reshape(1, 3, num_steps)\n",
    "        r_vr = np.load(datapath + \"vr.npy\").reshape(1, 3, num_steps)\n",
    "        r_rmse = np.load(datapath + \"rmse.npy\").reshape(1, 3, num_steps)\n",
    "\n",
    "        traj = np.append(traj, r_traj, axis=0)\n",
    "        ibv = np.append(ibv, r_ibv, axis=0)\n",
    "        vr = np.append(vr, r_vr, axis=0)\n",
    "        rmse = np.append(rmse, r_rmse, axis=0)\n",
    "\n",
    "    savefig = figpath[:-1] + string\n",
    "    checkfolder(savefig)\n",
    "\n",
    "    for i in tqdm(range(traj.shape[2])):\n",
    "        plotf(i, \"sigma: {:.1f}, nugget: {:.2f}, simulator: {:s}\".format(sigma, nugget, simulator), filename=savefig + \"P_{:03d}.png\".format(i))\n",
    "\n",
    "Parallel(n_jobs=5)(delayed(make_plots_total)(sigma=sigma, nugget=nugget, simulator=simulator) for sigma in sigmas for nugget in nuggets for simulator in Simulators)\n"
   ]
  },
  {
   "cell_type": "code",
   "execution_count": 1,
   "id": "9f7d6c4b",
   "metadata": {},
   "outputs": [
    {
     "name": "stderr",
     "output_type": "stream",
     "text": [
      "ffmpeg version 5.1.2 Copyright (c) 2000-2022 the FFmpeg developers\n",
      "  built with Apple clang version 14.0.0 (clang-1400.0.29.202)\n",
      "  configuration: --prefix=/opt/homebrew/Cellar/ffmpeg/5.1.2_5 --enable-shared --enable-pthreads --enable-version3 --cc=clang --host-cflags= --host-ldflags= --enable-ffplay --enable-gnutls --enable-gpl --enable-libaom --enable-libaribb24 --enable-libbluray --enable-libdav1d --enable-libmp3lame --enable-libopus --enable-librav1e --enable-librist --enable-librubberband --enable-libsnappy --enable-libsrt --enable-libsvtav1 --enable-libtesseract --enable-libtheora --enable-libvidstab --enable-libvmaf --enable-libvorbis --enable-libvpx --enable-libwebp --enable-libx264 --enable-libx265 --enable-libxml2 --enable-libxvid --enable-lzma --enable-libfontconfig --enable-libfreetype --enable-frei0r --enable-libass --enable-libopencore-amrnb --enable-libopencore-amrwb --enable-libopenjpeg --enable-libspeex --enable-libsoxr --enable-libzmq --enable-libzimg --disable-libjack --disable-indev=jack --enable-videotoolbox --enable-neon\n",
      "  libavutil      57. 28.100 / 57. 28.100\n",
      "  libavcodec     59. 37.100 / 59. 37.100\n",
      "  libavformat    59. 27.100 / 59. 27.100\n",
      "  libavdevice    59.  7.100 / 59.  7.100\n",
      "  libavfilter     8. 44.100 /  8. 44.100\n",
      "  libswscale      6.  7.100 /  6.  7.100\n",
      "  libswresample   4.  7.100 /  4.  7.100\n",
      "  libpostproc    56.  6.100 / 56.  6.100\n",
      "Input #0, image2, from 'P_%03d.png':\n",
      "  Duration: 00:00:04.00, start: 0.000000, bitrate: N/A\n",
      "  Stream #0:0: Video: png, rgba(pc), 7000x4000 [SAR 3937:3937 DAR 7:4], 25 fps, 25 tbr, 25 tbn\n",
      "Stream mapping:\n",
      "  Stream #0:0 -> #0:0 (png (native) -> h264 (libx264))\n",
      "Press [q] to stop, [?] for help\n",
      "[libx264 @ 0x142e06f80] using SAR=1/1\n",
      "[libx264 @ 0x142e06f80] using cpu capabilities: ARMv8 NEON\n",
      "[libx264 @ 0x142e06f80] profile High, level 6.0, 4:2:0, 8-bit\n",
      "[libx264 @ 0x142e06f80] 264 - core 164 r3095 baee400 - H.264/MPEG-4 AVC codec - Copyleft 2003-2022 - http://www.videolan.org/x264.html - options: cabac=1 ref=3 deblock=1:0:0 analyse=0x3:0x113 me=hex subme=7 psy=1 psy_rd=1.00:0.00 mixed_ref=1 me_range=16 chroma_me=1 trellis=1 8x8dct=1 cqm=0 deadzone=21,11 fast_pskip=1 chroma_qp_offset=-2 threads=15 lookahead_threads=2 sliced_threads=0 nr=0 decimate=1 interlaced=0 bluray_compat=0 constrained_intra=0 bframes=3 b_pyramid=2 b_adapt=1 b_bias=0 direct=1 weightb=1 open_gop=0 weightp=2 keyint=250 keyint_min=10 scenecut=40 intra_refresh=0 rc_lookahead=40 rc=crf mbtree=1 crf=20.0 qcomp=0.60 qpmin=0 qpmax=69 qpstep=4 ip_ratio=1.40 aq=1:1.00\n",
      "Output #0, mp4, to 'sim.mp4':\n",
      "  Metadata:\n",
      "    encoder         : Lavf59.27.100\n",
      "  Stream #0:0: Video: h264 (avc1 / 0x31637661), yuv420p(tv, progressive), 7000x4000 [SAR 1:1 DAR 7:4], q=2-31, 10 fps, 10240 tbn\n",
      "    Metadata:\n",
      "      encoder         : Lavc59.37.100 libx264\n",
      "    Side data:\n",
      "      cpb: bitrate max/min/avg: 0/0/0 buffer size: 0 vbv_delay: N/A\n",
      "frame=  100 fps= 10 q=-1.0 Lsize=    3167kB time=00:00:09.70 bitrate=2674.9kbits/s speed=0.993x    \n",
      "video:3165kB audio:0kB subtitle:0kB other streams:0kB global headers:0kB muxing overhead: 0.060436%\n",
      "[libx264 @ 0x142e06f80] frame I:1     Avg QP: 7.39  size:586542\n",
      "[libx264 @ 0x142e06f80] frame P:56    Avg QP:16.21  size: 41735\n",
      "[libx264 @ 0x142e06f80] frame B:43    Avg QP:20.55  size:  7372\n",
      "[libx264 @ 0x142e06f80] consecutive B-frames: 32.0% 32.0%  0.0% 36.0%\n",
      "[libx264 @ 0x142e06f80] mb I  I16..4: 72.5% 19.8%  7.7%\n",
      "[libx264 @ 0x142e06f80] mb P  I16..4:  0.1%  0.0%  0.2%  P16..4:  0.8%  0.1%  0.2%  0.0%  0.0%    skip:98.7%\n",
      "[libx264 @ 0x142e06f80] mb B  I16..4:  0.0%  0.1%  0.0%  B16..8:  0.8%  0.1%  0.1%  direct: 0.0%  skip:98.9%  L0:43.4% L1:54.8% BI: 1.8%\n",
      "[libx264 @ 0x142e06f80] 8x8 transform intra:19.4% inter:15.1%\n",
      "[libx264 @ 0x142e06f80] coded y,uvDC,uvAC intra: 9.7% 4.9% 4.6% inter: 0.3% 0.1% 0.1%\n",
      "[libx264 @ 0x142e06f80] i16 v,h,dc,p: 91%  8%  1%  0%\n",
      "[libx264 @ 0x142e06f80] i8 v,h,dc,ddl,ddr,vr,hd,vl,hu: 49%  6% 44%  0%  0%  0%  0%  0%  0%\n",
      "[libx264 @ 0x142e06f80] i4 v,h,dc,ddl,ddr,vr,hd,vl,hu: 34% 18% 24%  4%  4%  5%  3%  5%  3%\n",
      "[libx264 @ 0x142e06f80] i8c dc,h,v,p: 94%  1%  5%  0%\n",
      "[libx264 @ 0x142e06f80] Weighted P-Frames: Y:0.0% UV:0.0%\n",
      "[libx264 @ 0x142e06f80] ref P L0: 79.5% 14.1%  4.8%  1.6%\n",
      "[libx264 @ 0x142e06f80] ref B L0: 91.5%  7.7%  0.8%\n",
      "[libx264 @ 0x142e06f80] ref B L1: 98.7%  1.3%\n",
      "[libx264 @ 0x142e06f80] kb/s:2592.59\n",
      "ffmpeg version 5.1.2 Copyright (c) 2000-2022 the FFmpeg developers\n",
      "  built with Apple clang version 14.0.0 (clang-1400.0.29.202)\n",
      "  configuration: --prefix=/opt/homebrew/Cellar/ffmpeg/5.1.2_5 --enable-shared --enable-pthreads --enable-version3 --cc=clang --host-cflags= --host-ldflags= --enable-ffplay --enable-gnutls --enable-gpl --enable-libaom --enable-libaribb24 --enable-libbluray --enable-libdav1d --enable-libmp3lame --enable-libopus --enable-librav1e --enable-librist --enable-librubberband --enable-libsnappy --enable-libsrt --enable-libsvtav1 --enable-libtesseract --enable-libtheora --enable-libvidstab --enable-libvmaf --enable-libvorbis --enable-libvpx --enable-libwebp --enable-libx264 --enable-libx265 --enable-libxml2 --enable-libxvid --enable-lzma --enable-libfontconfig --enable-libfreetype --enable-frei0r --enable-libass --enable-libopencore-amrnb --enable-libopencore-amrwb --enable-libopenjpeg --enable-libspeex --enable-libsoxr --enable-libzmq --enable-libzimg --disable-libjack --disable-indev=jack --enable-videotoolbox --enable-neon\n",
      "  libavutil      57. 28.100 / 57. 28.100\n",
      "  libavcodec     59. 37.100 / 59. 37.100\n",
      "  libavformat    59. 27.100 / 59. 27.100\n",
      "  libavdevice    59.  7.100 / 59.  7.100\n",
      "  libavfilter     8. 44.100 /  8. 44.100\n",
      "  libswscale      6.  7.100 /  6.  7.100\n",
      "  libswresample   4.  7.100 /  4.  7.100\n",
      "  libpostproc    56.  6.100 / 56.  6.100\n",
      "Input #0, image2, from 'P_%03d.png':\n",
      "  Duration: 00:00:04.00, start: 0.000000, bitrate: N/A\n",
      "  Stream #0:0: Video: png, rgba(pc), 7000x4000 [SAR 3937:3937 DAR 7:4], 25 fps, 25 tbr, 25 tbn\n",
      "Stream mapping:\n",
      "  Stream #0:0 -> #0:0 (png (native) -> h264 (libx264))\n",
      "Press [q] to stop, [?] for help\n",
      "[libx264 @ 0x131e06440] using SAR=1/1\n",
      "[libx264 @ 0x131e06440] using cpu capabilities: ARMv8 NEON\n",
      "[libx264 @ 0x131e06440] profile High, level 6.0, 4:2:0, 8-bit\n",
      "[libx264 @ 0x131e06440] 264 - core 164 r3095 baee400 - H.264/MPEG-4 AVC codec - Copyleft 2003-2022 - http://www.videolan.org/x264.html - options: cabac=1 ref=3 deblock=1:0:0 analyse=0x3:0x113 me=hex subme=7 psy=1 psy_rd=1.00:0.00 mixed_ref=1 me_range=16 chroma_me=1 trellis=1 8x8dct=1 cqm=0 deadzone=21,11 fast_pskip=1 chroma_qp_offset=-2 threads=15 lookahead_threads=2 sliced_threads=0 nr=0 decimate=1 interlaced=0 bluray_compat=0 constrained_intra=0 bframes=3 b_pyramid=2 b_adapt=1 b_bias=0 direct=1 weightb=1 open_gop=0 weightp=2 keyint=250 keyint_min=10 scenecut=40 intra_refresh=0 rc_lookahead=40 rc=crf mbtree=1 crf=20.0 qcomp=0.60 qpmin=0 qpmax=69 qpstep=4 ip_ratio=1.40 aq=1:1.00\n",
      "Output #0, mp4, to 'sim.mp4':\n",
      "  Metadata:\n",
      "    encoder         : Lavf59.27.100\n",
      "  Stream #0:0: Video: h264 (avc1 / 0x31637661), yuv420p(tv, progressive), 7000x4000 [SAR 1:1 DAR 7:4], q=2-31, 10 fps, 10240 tbn\n",
      "    Metadata:\n",
      "      encoder         : Lavc59.37.100 libx264\n",
      "    Side data:\n",
      "      cpb: bitrate max/min/avg: 0/0/0 buffer size: 0 vbv_delay: N/A\n",
      "frame=   94 fps= 10 q=22.0 size=    1280kB time=00:00:03.20 bitrate=3276.8kbits/s speed=0.35x    \r",
      "\r",
      " frame=   76 fps= 10 q=22.0 size=     768kB time=00:00:01.40 bitrate=4493.9kbits/s speed=0.188x    frame=   88 fps= 10 q=22.0 size=    1024kB time=00:00:02.60 bitrate=3226.4kbits/s speed=0.302x    frame=  100 fps=9.7 q=-1.0 Lsize=    3189kB time=00:00:09.70 bitrate=2693.4kbits/s speed=0.943x    \n",
      "video:3187kB audio:0kB subtitle:0kB other streams:0kB global headers:0kB muxing overhead: 0.059531%\n",
      "[libx264 @ 0x131e06440] frame I:1     Avg QP: 7.07  size:591994\n",
      "[libx264 @ 0x131e06440] frame P:57    Avg QP:16.21  size: 41408\n",
      "[libx264 @ 0x131e06440] frame B:42    Avg QP:20.60  size:  7403\n",
      "[libx264 @ 0x131e06440] consecutive B-frames: 33.0% 32.0%  3.0% 32.0%\n",
      "[libx264 @ 0x131e06440] mb I  I16..4: 74.6% 17.6%  7.8%\n",
      "[libx264 @ 0x131e06440] mb P  I16..4:  0.0%  0.0%  0.2%  P16..4:  0.7%  0.1%  0.2%  0.0%  0.0%    skip:98.8%\n",
      "[libx264 @ 0x131e06440] mb B  I16..4:  0.0%  0.1%  0.0%  B16..8:  0.8%  0.1%  0.1%  direct: 0.0%  skip:98.9%  L0:43.0% L1:55.0% BI: 2.0%\n",
      "[libx264 @ 0x131e06440] 8x8 transform intra:17.6% inter:14.8%\n",
      "[libx264 @ 0x131e06440] coded y,uvDC,uvAC intra: 9.7% 4.7% 4.5% inter: 0.3% 0.1% 0.1%\n",
      "[libx264 @ 0x131e06440] i16 v,h,dc,p: 92%  8%  1%  0%\n",
      "[libx264 @ 0x131e06440] i8 v,h,dc,ddl,ddr,vr,hd,vl,hu: 51%  4% 44%  0%  0%  0%  0%  0%  0%\n",
      "[libx264 @ 0x131e06440] i4 v,h,dc,ddl,ddr,vr,hd,vl,hu: 34% 19% 24%  4%  4%  5%  3%  5%  3%\n",
      "[libx264 @ 0x131e06440] i8c dc,h,v,p: 95%  1%  4%  0%\n",
      "[libx264 @ 0x131e06440] Weighted P-Frames: Y:0.0% UV:0.0%\n",
      "[libx264 @ 0x131e06440] ref P L0: 79.3% 14.6%  4.7%  1.4%\n",
      "[libx264 @ 0x131e06440] ref B L0: 92.9%  6.8%  0.3%\n",
      "[libx264 @ 0x131e06440] ref B L1: 98.7%  1.3%\n",
      "[libx264 @ 0x131e06440] kb/s:2610.52\n",
      "ffmpeg version 5.1.2 Copyright (c) 2000-2022 the FFmpeg developers\n",
      "  built with Apple clang version 14.0.0 (clang-1400.0.29.202)\n",
      "  configuration: --prefix=/opt/homebrew/Cellar/ffmpeg/5.1.2_5 --enable-shared --enable-pthreads --enable-version3 --cc=clang --host-cflags= --host-ldflags= --enable-ffplay --enable-gnutls --enable-gpl --enable-libaom --enable-libaribb24 --enable-libbluray --enable-libdav1d --enable-libmp3lame --enable-libopus --enable-librav1e --enable-librist --enable-librubberband --enable-libsnappy --enable-libsrt --enable-libsvtav1 --enable-libtesseract --enable-libtheora --enable-libvidstab --enable-libvmaf --enable-libvorbis --enable-libvpx --enable-libwebp --enable-libx264 --enable-libx265 --enable-libxml2 --enable-libxvid --enable-lzma --enable-libfontconfig --enable-libfreetype --enable-frei0r --enable-libass --enable-libopencore-amrnb --enable-libopencore-amrwb --enable-libopenjpeg --enable-libspeex --enable-libsoxr --enable-libzmq --enable-libzimg --disable-libjack --disable-indev=jack --enable-videotoolbox --enable-neon\n",
      "  libavutil      57. 28.100 / 57. 28.100\n",
      "  libavcodec     59. 37.100 / 59. 37.100\n",
      "  libavformat    59. 27.100 / 59. 27.100\n",
      "  libavdevice    59.  7.100 / 59.  7.100\n",
      "  libavfilter     8. 44.100 /  8. 44.100\n",
      "  libswscale      6.  7.100 /  6.  7.100\n",
      "  libswresample   4.  7.100 /  4.  7.100\n",
      "  libpostproc    56.  6.100 / 56.  6.100\n",
      "Input #0, image2, from 'P_%03d.png':\n",
      "  Duration: 00:00:04.00, start: 0.000000, bitrate: N/A\n",
      "  Stream #0:0: Video: png, rgba(pc), 7000x4000 [SAR 3937:3937 DAR 7:4], 25 fps, 25 tbr, 25 tbn\n",
      "Stream mapping:\n",
      "  Stream #0:0 -> #0:0 (png (native) -> h264 (libx264))\n",
      "Press [q] to stop, [?] for help\n",
      "[libx264 @ 0x12c805b00] using SAR=1/1\n",
      "[libx264 @ 0x12c805b00] using cpu capabilities: ARMv8 NEON\n",
      "[libx264 @ 0x12c805b00] profile High, level 6.0, 4:2:0, 8-bit\n",
      "[libx264 @ 0x12c805b00] 264 - core 164 r3095 baee400 - H.264/MPEG-4 AVC codec - Copyleft 2003-2022 - http://www.videolan.org/x264.html - options: cabac=1 ref=3 deblock=1:0:0 analyse=0x3:0x113 me=hex subme=7 psy=1 psy_rd=1.00:0.00 mixed_ref=1 me_range=16 chroma_me=1 trellis=1 8x8dct=1 cqm=0 deadzone=21,11 fast_pskip=1 chroma_qp_offset=-2 threads=15 lookahead_threads=2 sliced_threads=0 nr=0 decimate=1 interlaced=0 bluray_compat=0 constrained_intra=0 bframes=3 b_pyramid=2 b_adapt=1 b_bias=0 direct=1 weightb=1 open_gop=0 weightp=2 keyint=250 keyint_min=10 scenecut=40 intra_refresh=0 rc_lookahead=40 rc=crf mbtree=1 crf=20.0 qcomp=0.60 qpmin=0 qpmax=69 qpstep=4 ip_ratio=1.40 aq=1:1.00\n",
      "Output #0, mp4, to 'sim.mp4':\n",
      "  Metadata:\n",
      "    encoder         : Lavf59.27.100\n",
      "  Stream #0:0: Video: h264 (avc1 / 0x31637661), yuv420p(tv, progressive), 7000x4000 [SAR 1:1 DAR 7:4], q=2-31, 10 fps, 10240 tbn\n",
      "    Metadata:\n",
      "      encoder         : Lavc59.37.100 libx264\n",
      "    Side data:\n",
      "      cpb: bitrate max/min/avg: 0/0/0 buffer size: 0 vbv_delay: N/A\n",
      "frame=  100 fps= 10 q=-1.0 Lsize=    3370kB time=00:00:09.70 bitrate=2846.4kbits/s speed=1.02x    \n",
      "video:3369kB audio:0kB subtitle:0kB other streams:0kB global headers:0kB muxing overhead: 0.055053%\n",
      "[libx264 @ 0x12c805b00] frame I:1     Avg QP: 6.18  size:606474\n",
      "[libx264 @ 0x12c805b00] frame P:61    Avg QP:16.62  size: 41984\n",
      "[libx264 @ 0x12c805b00] frame B:38    Avg QP:21.90  size:  7401\n",
      "[libx264 @ 0x12c805b00] consecutive B-frames: 39.0% 30.0%  3.0% 28.0%\n",
      "[libx264 @ 0x12c805b00] mb I  I16..4: 82.3%  9.6%  8.1%\n",
      "[libx264 @ 0x12c805b00] mb P  I16..4:  0.0%  0.0%  0.1%  P16..4:  0.8%  0.1%  0.2%  0.0%  0.0%    skip:98.8%\n",
      "[libx264 @ 0x12c805b00] mb B  I16..4:  0.0%  0.0%  0.0%  B16..8:  0.8%  0.1%  0.1%  direct: 0.0%  skip:98.9%  L0:43.0% L1:55.2% BI: 1.9%\n",
      "[libx264 @ 0x12c805b00] 8x8 transform intra:10.1% inter:14.7%\n",
      "[libx264 @ 0x12c805b00] coded y,uvDC,uvAC intra: 10.0% 4.6% 4.3% inter: 0.3% 0.1% 0.1%\n",
      "[libx264 @ 0x12c805b00] i16 v,h,dc,p: 92%  7%  1%  0%\n",
      "[libx264 @ 0x12c805b00] i8 v,h,dc,ddl,ddr,vr,hd,vl,hu: 48%  5% 46%  0%  0%  0%  0%  0%  0%\n",
      "[libx264 @ 0x12c805b00] i4 v,h,dc,ddl,ddr,vr,hd,vl,hu: 33% 19% 25%  4%  4%  5%  3%  5%  3%\n",
      "[libx264 @ 0x12c805b00] i8c dc,h,v,p: 95%  1%  4%  0%\n",
      "[libx264 @ 0x12c805b00] Weighted P-Frames: Y:0.0% UV:0.0%\n",
      "[libx264 @ 0x12c805b00] ref P L0: 79.3% 14.9%  4.3%  1.4%\n",
      "[libx264 @ 0x12c805b00] ref B L0: 94.5%  5.0%  0.5%\n",
      "[libx264 @ 0x12c805b00] ref B L1: 98.7%  1.3%\n",
      "[libx264 @ 0x12c805b00] kb/s:2758.96\n",
      "ffmpeg version 5.1.2 Copyright (c) 2000-2022 the FFmpeg developers\n",
      "  built with Apple clang version 14.0.0 (clang-1400.0.29.202)\n",
      "  configuration: --prefix=/opt/homebrew/Cellar/ffmpeg/5.1.2_5 --enable-shared --enable-pthreads --enable-version3 --cc=clang --host-cflags= --host-ldflags= --enable-ffplay --enable-gnutls --enable-gpl --enable-libaom --enable-libaribb24 --enable-libbluray --enable-libdav1d --enable-libmp3lame --enable-libopus --enable-librav1e --enable-librist --enable-librubberband --enable-libsnappy --enable-libsrt --enable-libsvtav1 --enable-libtesseract --enable-libtheora --enable-libvidstab --enable-libvmaf --enable-libvorbis --enable-libvpx --enable-libwebp --enable-libx264 --enable-libx265 --enable-libxml2 --enable-libxvid --enable-lzma --enable-libfontconfig --enable-libfreetype --enable-frei0r --enable-libass --enable-libopencore-amrnb --enable-libopencore-amrwb --enable-libopenjpeg --enable-libspeex --enable-libsoxr --enable-libzmq --enable-libzimg --disable-libjack --disable-indev=jack --enable-videotoolbox --enable-neon\n",
      "  libavutil      57. 28.100 / 57. 28.100\n",
      "  libavcodec     59. 37.100 / 59. 37.100\n",
      "  libavformat    59. 27.100 / 59. 27.100\n",
      "  libavdevice    59.  7.100 / 59.  7.100\n",
      "  libavfilter     8. 44.100 /  8. 44.100\n",
      "  libswscale      6.  7.100 /  6.  7.100\n",
      "  libswresample   4.  7.100 /  4.  7.100\n",
      "  libpostproc    56.  6.100 / 56.  6.100\n",
      "Input #0, image2, from 'P_%03d.png':\n",
      "  Duration: 00:00:04.00, start: 0.000000, bitrate: N/A\n",
      "  Stream #0:0: Video: png, rgba(pc), 7000x4000 [SAR 3937:3937 DAR 7:4], 25 fps, 25 tbr, 25 tbn\n",
      "Stream mapping:\n",
      "  Stream #0:0 -> #0:0 (png (native) -> h264 (libx264))\n",
      "Press [q] to stop, [?] for help\n",
      "[libx264 @ 0x144104b30] using SAR=1/1\n",
      "[libx264 @ 0x144104b30] using cpu capabilities: ARMv8 NEON\n",
      "[libx264 @ 0x144104b30] profile High, level 6.0, 4:2:0, 8-bit\n",
      "[libx264 @ 0x144104b30] 264 - core 164 r3095 baee400 - H.264/MPEG-4 AVC codec - Copyleft 2003-2022 - http://www.videolan.org/x264.html - options: cabac=1 ref=3 deblock=1:0:0 analyse=0x3:0x113 me=hex subme=7 psy=1 psy_rd=1.00:0.00 mixed_ref=1 me_range=16 chroma_me=1 trellis=1 8x8dct=1 cqm=0 deadzone=21,11 fast_pskip=1 chroma_qp_offset=-2 threads=15 lookahead_threads=2 sliced_threads=0 nr=0 decimate=1 interlaced=0 bluray_compat=0 constrained_intra=0 bframes=3 b_pyramid=2 b_adapt=1 b_bias=0 direct=1 weightb=1 open_gop=0 weightp=2 keyint=250 keyint_min=10 scenecut=40 intra_refresh=0 rc_lookahead=40 rc=crf mbtree=1 crf=20.0 qcomp=0.60 qpmin=0 qpmax=69 qpstep=4 ip_ratio=1.40 aq=1:1.00\n",
      "Output #0, mp4, to 'sim.mp4':\n",
      "  Metadata:\n",
      "    encoder         : Lavf59.27.100\n",
      "  Stream #0:0: Video: h264 (avc1 / 0x31637661), yuv420p(tv, progressive), 7000x4000 [SAR 1:1 DAR 7:4], q=2-31, 10 fps, 10240 tbn\n",
      "    Metadata:\n",
      "      encoder         : Lavc59.37.100 libx264\n",
      "    Side data:\n",
      "      cpb: bitrate max/min/avg: 0/0/0 buffer size: 0 vbv_delay: N/A\n",
      "frame=  100 fps= 10 q=-1.0 Lsize=    3368kB time=00:00:09.70 bitrate=2844.6kbits/s speed=0.995x    \n",
      "video:3366kB audio:0kB subtitle:0kB other streams:0kB global headers:0kB muxing overhead: 0.054043%\n",
      "[libx264 @ 0x144104b30] frame I:1     Avg QP: 6.36  size:594067\n",
      "[libx264 @ 0x144104b30] frame P:64    Avg QP:16.47  size: 40385\n",
      "[libx264 @ 0x144104b30] frame B:35    Avg QP:21.72  size:  7652\n",
      "[libx264 @ 0x144104b30] consecutive B-frames: 44.0% 28.0%  0.0% 28.0%\n",
      "[libx264 @ 0x144104b30] mb I  I16..4: 80.6% 11.4%  8.0%\n",
      "[libx264 @ 0x144104b30] mb P  I16..4:  0.0%  0.0%  0.1%  P16..4:  0.8%  0.1%  0.2%  0.0%  0.0%    skip:98.8%\n",
      "[libx264 @ 0x144104b30] mb B  I16..4:  0.0%  0.1%  0.0%  B16..8:  0.8%  0.1%  0.1%  direct: 0.0%  skip:98.9%  L0:42.1% L1:56.0% BI: 1.9%\n",
      "[libx264 @ 0x144104b30] 8x8 transform intra:11.9% inter:14.6%\n",
      "[libx264 @ 0x144104b30] coded y,uvDC,uvAC intra: 9.9% 4.6% 4.3% inter: 0.4% 0.1% 0.1%\n",
      "[libx264 @ 0x144104b30] i16 v,h,dc,p: 91%  8%  1%  0%\n",
      "[libx264 @ 0x144104b30] i8 v,h,dc,ddl,ddr,vr,hd,vl,hu: 52%  6% 42%  0%  0%  0%  0%  0%  0%\n",
      "[libx264 @ 0x144104b30] i4 v,h,dc,ddl,ddr,vr,hd,vl,hu: 34% 19% 25%  4%  4%  5%  3%  5%  3%\n",
      "[libx264 @ 0x144104b30] i8c dc,h,v,p: 95%  1%  4%  0%\n",
      "[libx264 @ 0x144104b30] Weighted P-Frames: Y:0.0% UV:0.0%\n",
      "[libx264 @ 0x144104b30] ref P L0: 79.8% 14.0%  4.5%  1.6%\n",
      "[libx264 @ 0x144104b30] ref B L0: 93.9%  5.7%  0.4%\n",
      "[libx264 @ 0x144104b30] ref B L1: 98.7%  1.3%\n",
      "[libx264 @ 0x144104b30] kb/s:2757.23\n",
      "ffmpeg version 5.1.2 Copyright (c) 2000-2022 the FFmpeg developers\n",
      "  built with Apple clang version 14.0.0 (clang-1400.0.29.202)\n",
      "  configuration: --prefix=/opt/homebrew/Cellar/ffmpeg/5.1.2_5 --enable-shared --enable-pthreads --enable-version3 --cc=clang --host-cflags= --host-ldflags= --enable-ffplay --enable-gnutls --enable-gpl --enable-libaom --enable-libaribb24 --enable-libbluray --enable-libdav1d --enable-libmp3lame --enable-libopus --enable-librav1e --enable-librist --enable-librubberband --enable-libsnappy --enable-libsrt --enable-libsvtav1 --enable-libtesseract --enable-libtheora --enable-libvidstab --enable-libvmaf --enable-libvorbis --enable-libvpx --enable-libwebp --enable-libx264 --enable-libx265 --enable-libxml2 --enable-libxvid --enable-lzma --enable-libfontconfig --enable-libfreetype --enable-frei0r --enable-libass --enable-libopencore-amrnb --enable-libopencore-amrwb --enable-libopenjpeg --enable-libspeex --enable-libsoxr --enable-libzmq --enable-libzimg --disable-libjack --disable-indev=jack --enable-videotoolbox --enable-neon\n",
      "  libavutil      57. 28.100 / 57. 28.100\n",
      "  libavcodec     59. 37.100 / 59. 37.100\n",
      "  libavformat    59. 27.100 / 59. 27.100\n",
      "  libavdevice    59.  7.100 / 59.  7.100\n",
      "  libavfilter     8. 44.100 /  8. 44.100\n",
      "  libswscale      6.  7.100 /  6.  7.100\n",
      "  libswresample   4.  7.100 /  4.  7.100\n",
      "  libpostproc    56.  6.100 / 56.  6.100\n",
      "Input #0, image2, from 'P_%03d.png':\n",
      "  Duration: 00:00:04.00, start: 0.000000, bitrate: N/A\n",
      "  Stream #0:0: Video: png, rgba(pc), 7000x4000 [SAR 3937:3937 DAR 7:4], 25 fps, 25 tbr, 25 tbn\n",
      "Stream mapping:\n",
      "  Stream #0:0 -> #0:0 (png (native) -> h264 (libx264))\n",
      "Press [q] to stop, [?] for help\n",
      "[libx264 @ 0x136e05500] using SAR=1/1\n",
      "[libx264 @ 0x136e05500] using cpu capabilities: ARMv8 NEON\n",
      "[libx264 @ 0x136e05500] profile High, level 6.0, 4:2:0, 8-bit\n",
      "[libx264 @ 0x136e05500] 264 - core 164 r3095 baee400 - H.264/MPEG-4 AVC codec - Copyleft 2003-2022 - http://www.videolan.org/x264.html - options: cabac=1 ref=3 deblock=1:0:0 analyse=0x3:0x113 me=hex subme=7 psy=1 psy_rd=1.00:0.00 mixed_ref=1 me_range=16 chroma_me=1 trellis=1 8x8dct=1 cqm=0 deadzone=21,11 fast_pskip=1 chroma_qp_offset=-2 threads=15 lookahead_threads=2 sliced_threads=0 nr=0 decimate=1 interlaced=0 bluray_compat=0 constrained_intra=0 bframes=3 b_pyramid=2 b_adapt=1 b_bias=0 direct=1 weightb=1 open_gop=0 weightp=2 keyint=250 keyint_min=10 scenecut=40 intra_refresh=0 rc_lookahead=40 rc=crf mbtree=1 crf=20.0 qcomp=0.60 qpmin=0 qpmax=69 qpstep=4 ip_ratio=1.40 aq=1:1.00\n",
      "Output #0, mp4, to 'sim.mp4':\n",
      "  Metadata:\n",
      "    encoder         : Lavf59.27.100\n",
      "  Stream #0:0: Video: h264 (avc1 / 0x31637661), yuv420p(tv, progressive), 7000x4000 [SAR 1:1 DAR 7:4], q=2-31, 10 fps, 10240 tbn\n",
      "    Metadata:\n",
      "      encoder         : Lavc59.37.100 libx264\n",
      "    Side data:\n",
      "      cpb: bitrate max/min/avg: 0/0/0 buffer size: 0 vbv_delay: N/A\n",
      "frame=  100 fps= 11 q=-1.0 Lsize=    2859kB time=00:00:09.70 bitrate=2414.3kbits/s speed=1.07x    \n",
      "video:2857kB audio:0kB subtitle:0kB other streams:0kB global headers:0kB muxing overhead: 0.065871%\n",
      "[libx264 @ 0x136e05500] frame I:1     Avg QP: 7.36  size:586574\n",
      "[libx264 @ 0x136e05500] frame P:55    Avg QP:15.99  size: 36746\n",
      "[libx264 @ 0x136e05500] frame B:44    Avg QP:21.11  size:  7208\n",
      "[libx264 @ 0x136e05500] consecutive B-frames: 32.0% 26.0%  6.0% 36.0%\n",
      "[libx264 @ 0x136e05500] mb I  I16..4: 72.5% 19.7%  7.7%\n",
      "[libx264 @ 0x136e05500] mb P  I16..4:  0.1%  0.0%  0.1%  P16..4:  0.6%  0.1%  0.1%  0.0%  0.0%    skip:98.9%\n",
      "[libx264 @ 0x136e05500] mb B  I16..4:  0.0%  0.1%  0.0%  B16..8:  0.7%  0.1%  0.1%  direct: 0.0%  skip:99.0%  L0:44.1% L1:53.9% BI: 2.0%\n",
      "[libx264 @ 0x136e05500] 8x8 transform intra:19.7% inter:15.5%\n",
      "[libx264 @ 0x136e05500] coded y,uvDC,uvAC intra: 9.4% 5.0% 4.7% inter: 0.3% 0.1% 0.1%\n",
      "[libx264 @ 0x136e05500] i16 v,h,dc,p: 92%  8%  1%  0%\n",
      "[libx264 @ 0x136e05500] i8 v,h,dc,ddl,ddr,vr,hd,vl,hu: 52%  4% 43%  0%  0%  0%  0%  0%  0%\n",
      "[libx264 @ 0x136e05500] i4 v,h,dc,ddl,ddr,vr,hd,vl,hu: 35% 18% 23%  4%  4%  5%  3%  5%  3%\n",
      "[libx264 @ 0x136e05500] i8c dc,h,v,p: 94%  1%  5%  0%\n",
      "[libx264 @ 0x136e05500] Weighted P-Frames: Y:0.0% UV:0.0%\n",
      "[libx264 @ 0x136e05500] ref P L0: 77.4% 14.7%  5.9%  2.0%\n",
      "[libx264 @ 0x136e05500] ref B L0: 90.4%  9.0%  0.6%\n",
      "[libx264 @ 0x136e05500] ref B L1: 98.9%  1.1%\n",
      "[libx264 @ 0x136e05500] kb/s:2339.78\n",
      "ffmpeg version 5.1.2 Copyright (c) 2000-2022 the FFmpeg developers\n",
      "  built with Apple clang version 14.0.0 (clang-1400.0.29.202)\n",
      "  configuration: --prefix=/opt/homebrew/Cellar/ffmpeg/5.1.2_5 --enable-shared --enable-pthreads --enable-version3 --cc=clang --host-cflags= --host-ldflags= --enable-ffplay --enable-gnutls --enable-gpl --enable-libaom --enable-libaribb24 --enable-libbluray --enable-libdav1d --enable-libmp3lame --enable-libopus --enable-librav1e --enable-librist --enable-librubberband --enable-libsnappy --enable-libsrt --enable-libsvtav1 --enable-libtesseract --enable-libtheora --enable-libvidstab --enable-libvmaf --enable-libvorbis --enable-libvpx --enable-libwebp --enable-libx264 --enable-libx265 --enable-libxml2 --enable-libxvid --enable-lzma --enable-libfontconfig --enable-libfreetype --enable-frei0r --enable-libass --enable-libopencore-amrnb --enable-libopencore-amrwb --enable-libopenjpeg --enable-libspeex --enable-libsoxr --enable-libzmq --enable-libzimg --disable-libjack --disable-indev=jack --enable-videotoolbox --enable-neon\n",
      "  libavutil      57. 28.100 / 57. 28.100\n",
      "  libavcodec     59. 37.100 / 59. 37.100\n",
      "  libavformat    59. 27.100 / 59. 27.100\n",
      "  libavdevice    59.  7.100 / 59.  7.100\n",
      "  libavfilter     8. 44.100 /  8. 44.100\n",
      "  libswscale      6.  7.100 /  6.  7.100\n",
      "  libswresample   4.  7.100 /  4.  7.100\n",
      "  libpostproc    56.  6.100 / 56.  6.100\n",
      "Input #0, image2, from 'P_%03d.png':\n",
      "  Duration: 00:00:04.00, start: 0.000000, bitrate: N/A\n",
      "  Stream #0:0: Video: png, rgba(pc), 7000x4000 [SAR 3937:3937 DAR 7:4], 25 fps, 25 tbr, 25 tbn\n",
      "Stream mapping:\n",
      "  Stream #0:0 -> #0:0 (png (native) -> h264 (libx264))\n",
      "Press [q] to stop, [?] for help\n",
      "[libx264 @ 0x1497056f0] using SAR=1/1\n",
      "[libx264 @ 0x1497056f0] using cpu capabilities: ARMv8 NEON\n",
      "[libx264 @ 0x1497056f0] profile High, level 6.0, 4:2:0, 8-bit\n",
      "[libx264 @ 0x1497056f0] 264 - core 164 r3095 baee400 - H.264/MPEG-4 AVC codec - Copyleft 2003-2022 - http://www.videolan.org/x264.html - options: cabac=1 ref=3 deblock=1:0:0 analyse=0x3:0x113 me=hex subme=7 psy=1 psy_rd=1.00:0.00 mixed_ref=1 me_range=16 chroma_me=1 trellis=1 8x8dct=1 cqm=0 deadzone=21,11 fast_pskip=1 chroma_qp_offset=-2 threads=15 lookahead_threads=2 sliced_threads=0 nr=0 decimate=1 interlaced=0 bluray_compat=0 constrained_intra=0 bframes=3 b_pyramid=2 b_adapt=1 b_bias=0 direct=1 weightb=1 open_gop=0 weightp=2 keyint=250 keyint_min=10 scenecut=40 intra_refresh=0 rc_lookahead=40 rc=crf mbtree=1 crf=20.0 qcomp=0.60 qpmin=0 qpmax=69 qpstep=4 ip_ratio=1.40 aq=1:1.00\n",
      "Output #0, mp4, to 'sim.mp4':\n",
      "  Metadata:\n",
      "    encoder         : Lavf59.27.100\n",
      "  Stream #0:0: Video: h264 (avc1 / 0x31637661), yuv420p(tv, progressive), 7000x4000 [SAR 1:1 DAR 7:4], q=2-31, 10 fps, 10240 tbn\n",
      "    Metadata:\n",
      "      encoder         : Lavc59.37.100 libx264\n",
      "    Side data:\n",
      "      cpb: bitrate max/min/avg: 0/0/0 buffer size: 0 vbv_delay: N/A\n",
      "frame=  100 fps= 10 q=-1.0 Lsize=    2878kB time=00:00:09.70 bitrate=2430.5kbits/s speed=0.992x    \n",
      "video:2876kB audio:0kB subtitle:0kB other streams:0kB global headers:0kB muxing overhead: 0.068693%\n",
      "[libx264 @ 0x1497056f0] frame I:1     Avg QP: 7.37  size:596485\n",
      "[libx264 @ 0x1497056f0] frame P:46    Avg QP:15.78  size: 43017\n",
      "[libx264 @ 0x1497056f0] frame B:53    Avg QP:21.34  size:  6963\n",
      "[libx264 @ 0x1497056f0] consecutive B-frames: 18.0% 30.0% 12.0% 40.0%\n",
      "[libx264 @ 0x1497056f0] mb I  I16..4: 72.5% 19.5%  8.0%\n",
      "[libx264 @ 0x1497056f0] mb P  I16..4:  0.1%  0.0%  0.2%  P16..4:  0.6%  0.1%  0.1%  0.0%  0.0%    skip:98.8%\n",
      "[libx264 @ 0x1497056f0] mb B  I16..4:  0.0%  0.1%  0.0%  B16..8:  0.7%  0.1%  0.1%  direct: 0.0%  skip:98.9%  L0:44.5% L1:53.5% BI: 2.0%\n",
      "[libx264 @ 0x1497056f0] 8x8 transform intra:19.6% inter:15.2%\n",
      "[libx264 @ 0x1497056f0] coded y,uvDC,uvAC intra: 10.0% 5.4% 5.1% inter: 0.3% 0.1% 0.1%\n",
      "[libx264 @ 0x1497056f0] i16 v,h,dc,p: 91%  9%  1%  0%\n",
      "[libx264 @ 0x1497056f0] i8 v,h,dc,ddl,ddr,vr,hd,vl,hu: 51%  5% 44%  0%  0%  0%  0%  0%  0%\n",
      "[libx264 @ 0x1497056f0] i4 v,h,dc,ddl,ddr,vr,hd,vl,hu: 36% 18% 22%  4%  4%  5%  3%  5%  3%\n",
      "[libx264 @ 0x1497056f0] i8c dc,h,v,p: 94%  1%  5%  0%\n",
      "[libx264 @ 0x1497056f0] Weighted P-Frames: Y:0.0% UV:0.0%\n",
      "[libx264 @ 0x1497056f0] ref P L0: 75.7% 16.4%  6.1%  1.8%\n",
      "[libx264 @ 0x1497056f0] ref B L0: 91.2%  7.8%  1.0%\n",
      "[libx264 @ 0x1497056f0] ref B L1: 98.9%  1.1%\n",
      "[libx264 @ 0x1497056f0] kb/s:2355.43\n",
      "ffmpeg version 5.1.2 Copyright (c) 2000-2022 the FFmpeg developers\n",
      "  built with Apple clang version 14.0.0 (clang-1400.0.29.202)\n",
      "  configuration: --prefix=/opt/homebrew/Cellar/ffmpeg/5.1.2_5 --enable-shared --enable-pthreads --enable-version3 --cc=clang --host-cflags= --host-ldflags= --enable-ffplay --enable-gnutls --enable-gpl --enable-libaom --enable-libaribb24 --enable-libbluray --enable-libdav1d --enable-libmp3lame --enable-libopus --enable-librav1e --enable-librist --enable-librubberband --enable-libsnappy --enable-libsrt --enable-libsvtav1 --enable-libtesseract --enable-libtheora --enable-libvidstab --enable-libvmaf --enable-libvorbis --enable-libvpx --enable-libwebp --enable-libx264 --enable-libx265 --enable-libxml2 --enable-libxvid --enable-lzma --enable-libfontconfig --enable-libfreetype --enable-frei0r --enable-libass --enable-libopencore-amrnb --enable-libopencore-amrwb --enable-libopenjpeg --enable-libspeex --enable-libsoxr --enable-libzmq --enable-libzimg --disable-libjack --disable-indev=jack --enable-videotoolbox --enable-neon\n",
      "  libavutil      57. 28.100 / 57. 28.100\n",
      "  libavcodec     59. 37.100 / 59. 37.100\n",
      "  libavformat    59. 27.100 / 59. 27.100\n",
      "  libavdevice    59.  7.100 / 59.  7.100\n",
      "  libavfilter     8. 44.100 /  8. 44.100\n",
      "  libswscale      6.  7.100 /  6.  7.100\n",
      "  libswresample   4.  7.100 /  4.  7.100\n",
      "  libpostproc    56.  6.100 / 56.  6.100\n",
      "Input #0, image2, from 'P_%03d.png':\n",
      "  Duration: 00:00:04.00, start: 0.000000, bitrate: N/A\n",
      "  Stream #0:0: Video: png, rgba(pc), 7000x4000 [SAR 3937:3937 DAR 7:4], 25 fps, 25 tbr, 25 tbn\n",
      "Stream mapping:\n",
      "  Stream #0:0 -> #0:0 (png (native) -> h264 (libx264))\n",
      "Press [q] to stop, [?] for help\n",
      "[libx264 @ 0x10be04b10] using SAR=1/1\n",
      "[libx264 @ 0x10be04b10] using cpu capabilities: ARMv8 NEON\n",
      "[libx264 @ 0x10be04b10] profile High, level 6.0, 4:2:0, 8-bit\n",
      "[libx264 @ 0x10be04b10] 264 - core 164 r3095 baee400 - H.264/MPEG-4 AVC codec - Copyleft 2003-2022 - http://www.videolan.org/x264.html - options: cabac=1 ref=3 deblock=1:0:0 analyse=0x3:0x113 me=hex subme=7 psy=1 psy_rd=1.00:0.00 mixed_ref=1 me_range=16 chroma_me=1 trellis=1 8x8dct=1 cqm=0 deadzone=21,11 fast_pskip=1 chroma_qp_offset=-2 threads=15 lookahead_threads=2 sliced_threads=0 nr=0 decimate=1 interlaced=0 bluray_compat=0 constrained_intra=0 bframes=3 b_pyramid=2 b_adapt=1 b_bias=0 direct=1 weightb=1 open_gop=0 weightp=2 keyint=250 keyint_min=10 scenecut=40 intra_refresh=0 rc_lookahead=40 rc=crf mbtree=1 crf=20.0 qcomp=0.60 qpmin=0 qpmax=69 qpstep=4 ip_ratio=1.40 aq=1:1.00\n",
      "Output #0, mp4, to 'sim.mp4':\n",
      "  Metadata:\n",
      "    encoder         : Lavf59.27.100\n",
      "  Stream #0:0: Video: h264 (avc1 / 0x31637661), yuv420p(tv, progressive), 7000x4000 [SAR 1:1 DAR 7:4], q=2-31, 10 fps, 10240 tbn\n",
      "    Metadata:\n",
      "      encoder         : Lavc59.37.100 libx264\n",
      "    Side data:\n",
      "      cpb: bitrate max/min/avg: 0/0/0 buffer size: 0 vbv_delay: N/A\n",
      "frame=  100 fps= 11 q=-1.0 Lsize=    2593kB time=00:00:09.70 bitrate=2189.8kbits/s speed=1.08x    \n",
      "video:2591kB audio:0kB subtitle:0kB other streams:0kB global headers:0kB muxing overhead: 0.074139%\n",
      "[libx264 @ 0x10be04b10] frame I:1     Avg QP: 9.14  size:632064\n",
      "[libx264 @ 0x10be04b10] frame P:54    Avg QP:16.35  size: 31992\n",
      "[libx264 @ 0x10be04b10] frame B:45    Avg QP:20.57  size:  6506\n",
      "[libx264 @ 0x10be04b10] consecutive B-frames: 28.0% 34.0%  6.0% 32.0%\n",
      "[libx264 @ 0x10be04b10] mb I  I16..4: 63.2% 28.4%  8.4%\n",
      "[libx264 @ 0x10be04b10] mb P  I16..4:  0.1%  0.0%  0.1%  P16..4:  0.5%  0.1%  0.1%  0.0%  0.0%    skip:99.1%\n",
      "[libx264 @ 0x10be04b10] mb B  I16..4:  0.0%  0.1%  0.0%  B16..8:  0.6%  0.1%  0.1%  direct: 0.0%  skip:99.0%  L0:44.2% L1:53.8% BI: 2.0%\n",
      "[libx264 @ 0x10be04b10] 8x8 transform intra:28.4% inter:15.1%\n",
      "[libx264 @ 0x10be04b10] coded y,uvDC,uvAC intra: 9.3% 5.0% 4.8% inter: 0.2% 0.1% 0.1%\n",
      "[libx264 @ 0x10be04b10] i16 v,h,dc,p: 89% 10%  1%  0%\n",
      "[libx264 @ 0x10be04b10] i8 v,h,dc,ddl,ddr,vr,hd,vl,hu: 52%  5% 43%  0%  0%  0%  0%  0%  0%\n",
      "[libx264 @ 0x10be04b10] i4 v,h,dc,ddl,ddr,vr,hd,vl,hu: 38% 18% 22%  4%  4%  4%  3%  5%  3%\n",
      "[libx264 @ 0x10be04b10] i8c dc,h,v,p: 94%  1%  5%  0%\n",
      "[libx264 @ 0x10be04b10] Weighted P-Frames: Y:0.0% UV:0.0%\n",
      "[libx264 @ 0x10be04b10] ref P L0: 75.6% 15.2%  6.8%  2.5%\n",
      "[libx264 @ 0x10be04b10] ref B L0: 90.4%  7.9%  1.7%\n",
      "[libx264 @ 0x10be04b10] ref B L1: 98.9%  1.1%\n",
      "[libx264 @ 0x10be04b10] kb/s:2121.96\n",
      "ffmpeg version 5.1.2 Copyright (c) 2000-2022 the FFmpeg developers\n",
      "  built with Apple clang version 14.0.0 (clang-1400.0.29.202)\n",
      "  configuration: --prefix=/opt/homebrew/Cellar/ffmpeg/5.1.2_5 --enable-shared --enable-pthreads --enable-version3 --cc=clang --host-cflags= --host-ldflags= --enable-ffplay --enable-gnutls --enable-gpl --enable-libaom --enable-libaribb24 --enable-libbluray --enable-libdav1d --enable-libmp3lame --enable-libopus --enable-librav1e --enable-librist --enable-librubberband --enable-libsnappy --enable-libsrt --enable-libsvtav1 --enable-libtesseract --enable-libtheora --enable-libvidstab --enable-libvmaf --enable-libvorbis --enable-libvpx --enable-libwebp --enable-libx264 --enable-libx265 --enable-libxml2 --enable-libxvid --enable-lzma --enable-libfontconfig --enable-libfreetype --enable-frei0r --enable-libass --enable-libopencore-amrnb --enable-libopencore-amrwb --enable-libopenjpeg --enable-libspeex --enable-libsoxr --enable-libzmq --enable-libzimg --disable-libjack --disable-indev=jack --enable-videotoolbox --enable-neon\n",
      "  libavutil      57. 28.100 / 57. 28.100\n",
      "  libavcodec     59. 37.100 / 59. 37.100\n",
      "  libavformat    59. 27.100 / 59. 27.100\n",
      "  libavdevice    59.  7.100 / 59.  7.100\n",
      "  libavfilter     8. 44.100 /  8. 44.100\n",
      "  libswscale      6.  7.100 /  6.  7.100\n",
      "  libswresample   4.  7.100 /  4.  7.100\n",
      "  libpostproc    56.  6.100 / 56.  6.100\n",
      "Input #0, image2, from 'P_%03d.png':\n",
      "  Duration: 00:00:04.00, start: 0.000000, bitrate: N/A\n",
      "  Stream #0:0: Video: png, rgba(pc), 7000x4000 [SAR 3937:3937 DAR 7:4], 25 fps, 25 tbr, 25 tbn\n",
      "Stream mapping:\n",
      "  Stream #0:0 -> #0:0 (png (native) -> h264 (libx264))\n",
      "Press [q] to stop, [?] for help\n",
      "[libx264 @ 0x13cf05e10] using SAR=1/1\n",
      "[libx264 @ 0x13cf05e10] using cpu capabilities: ARMv8 NEON\n",
      "[libx264 @ 0x13cf05e10] profile High, level 6.0, 4:2:0, 8-bit\n",
      "[libx264 @ 0x13cf05e10] 264 - core 164 r3095 baee400 - H.264/MPEG-4 AVC codec - Copyleft 2003-2022 - http://www.videolan.org/x264.html - options: cabac=1 ref=3 deblock=1:0:0 analyse=0x3:0x113 me=hex subme=7 psy=1 psy_rd=1.00:0.00 mixed_ref=1 me_range=16 chroma_me=1 trellis=1 8x8dct=1 cqm=0 deadzone=21,11 fast_pskip=1 chroma_qp_offset=-2 threads=15 lookahead_threads=2 sliced_threads=0 nr=0 decimate=1 interlaced=0 bluray_compat=0 constrained_intra=0 bframes=3 b_pyramid=2 b_adapt=1 b_bias=0 direct=1 weightb=1 open_gop=0 weightp=2 keyint=250 keyint_min=10 scenecut=40 intra_refresh=0 rc_lookahead=40 rc=crf mbtree=1 crf=20.0 qcomp=0.60 qpmin=0 qpmax=69 qpstep=4 ip_ratio=1.40 aq=1:1.00\n",
      "Output #0, mp4, to 'sim.mp4':\n",
      "  Metadata:\n",
      "    encoder         : Lavf59.27.100\n",
      "  Stream #0:0: Video: h264 (avc1 / 0x31637661), yuv420p(tv, progressive), 7000x4000 [SAR 1:1 DAR 7:4], q=2-31, 10 fps, 10240 tbn\n",
      "    Metadata:\n",
      "      encoder         : Lavc59.37.100 libx264\n",
      "    Side data:\n",
      "      cpb: bitrate max/min/avg: 0/0/0 buffer size: 0 vbv_delay: N/A\n",
      "frame=  100 fps= 11 q=-1.0 Lsize=    2495kB time=00:00:09.70 bitrate=2106.9kbits/s speed=1.05x    \n",
      "video:2493kB audio:0kB subtitle:0kB other streams:0kB global headers:0kB muxing overhead: 0.079566%\n",
      "[libx264 @ 0x13cf05e10] frame I:1     Avg QP: 6.53  size:595067\n",
      "[libx264 @ 0x13cf05e10] frame P:50    Avg QP:15.59  size: 33238\n",
      "[libx264 @ 0x13cf05e10] frame B:49    Avg QP:20.92  size:  6019\n",
      "[libx264 @ 0x13cf05e10] consecutive B-frames: 21.0% 40.0%  3.0% 36.0%\n",
      "[libx264 @ 0x13cf05e10] mb I  I16..4: 79.6% 12.5%  7.9%\n",
      "[libx264 @ 0x13cf05e10] mb P  I16..4:  0.0%  0.0%  0.2%  P16..4:  0.5%  0.1%  0.1%  0.0%  0.0%    skip:99.1%\n",
      "[libx264 @ 0x13cf05e10] mb B  I16..4:  0.0%  0.1%  0.0%  B16..8:  0.6%  0.1%  0.1%  direct: 0.0%  skip:99.1%  L0:43.8% L1:54.5% BI: 1.7%\n",
      "[libx264 @ 0x13cf05e10] 8x8 transform intra:14.2% inter:14.3%\n",
      "[libx264 @ 0x13cf05e10] coded y,uvDC,uvAC intra: 9.2% 5.2% 4.9% inter: 0.2% 0.1% 0.1%\n",
      "[libx264 @ 0x13cf05e10] i16 v,h,dc,p: 92%  8%  1%  0%\n",
      "[libx264 @ 0x13cf05e10] i8 v,h,dc,ddl,ddr,vr,hd,vl,hu: 49%  4% 47%  0%  0%  0%  0%  0%  0%\n",
      "[libx264 @ 0x13cf05e10] i4 v,h,dc,ddl,ddr,vr,hd,vl,hu: 36% 18% 24%  4%  4%  4%  3%  4%  3%\n",
      "[libx264 @ 0x13cf05e10] i8c dc,h,v,p: 94%  1%  5%  0%\n",
      "[libx264 @ 0x13cf05e10] Weighted P-Frames: Y:0.0% UV:0.0%\n",
      "[libx264 @ 0x13cf05e10] ref P L0: 75.5% 15.4%  6.8%  2.2%\n",
      "[libx264 @ 0x13cf05e10] ref B L0: 91.5%  8.1%  0.4%\n",
      "[libx264 @ 0x13cf05e10] ref B L1: 98.8%  1.2%\n",
      "[libx264 @ 0x13cf05e10] kb/s:2041.53\n"
     ]
    }
   ],
   "source": [
    "import os\n",
    "import numpy as np\n",
    "figpath = os.getcwd() + \"/../../../../OneDrive - NTNU/MASCOT_PhD/Projects/GOOGLE/Docs/fig/Sim_2DNidelva/Simulator/\"\n",
    "# sigmas = [1., .1]\n",
    "# nuggets = [.4, .01]\n",
    "\n",
    "\n",
    "# sigmas = [1.5, 1., .5, .1]\n",
    "# nuggets = [.4, .25, .1, .01]\n",
    "\n",
    "sigmas_nuggets = np.array([[1., .25],\n",
    "                           [1., .1],\n",
    "                           [1.5, .25],\n",
    "                           [1.5, .1],\n",
    "                           [.5, .25],\n",
    "                           [.5, .1],\n",
    "                           [.1, .1],\n",
    "                           [.1, .01]])\n",
    "\n",
    "Simulators = [\"SimulatorRRTStar\", \"SimulatorMyopic2D\"]\n",
    "\n",
    "# for sigma in sigmas: \n",
    "#     for nugget in nuggets: \n",
    "for sigma, nugget in sigmas_nuggets:\n",
    "#     for simulator in Simulators:  \n",
    "        string = \"sigma_{:02d}/\".format(int(10*sigma)) + \"nugget_{:03d}/\".format(int(100*nugget)) + \"/\"\n",
    "        mppath = figpath + string\n",
    "        os.chdir(mppath)\n",
    "#             print(os.getcwd())\n",
    "        os.system(\"ffmpeg -y -r 10 -i P_%03d.png -vcodec libx264 -crf 20 -pix_fmt yuv420p sim.mp4\")\n",
    "#             print(os.listdir(mppath))\n",
    "#             break\n",
    "#         break    \n",
    "#     break\n",
    "\n",
    "            "
   ]
  },
  {
   "cell_type": "code",
   "execution_count": 4,
   "id": "55dc56fb",
   "metadata": {},
   "outputs": [
    {
     "data": {
      "text/plain": [
       "'/Users/yaolin/CodeSpace/GOOGLE/Publication/src/../../../../OneDrive - NTNU/MASCOT_PhD/Projects/GOOGLE/Docs/fig/Sim_2DNidelva/Simulator/sigma_10/nugget_025/SimulatorRRTStar/'"
      ]
     },
     "execution_count": 4,
     "metadata": {},
     "output_type": "execute_result"
    }
   ],
   "source": [
    "mppath"
   ]
  },
  {
   "cell_type": "code",
   "execution_count": 6,
   "id": "48bb9094",
   "metadata": {},
   "outputs": [
    {
     "data": {
      "text/plain": [
       "['.DS_Store',\n",
       " 'sigma_15',\n",
       " 'sigma_01',\n",
       " 'ApproximateEIBV',\n",
       " 'Myopic',\n",
       " 'AnalyticalEIBV',\n",
       " 'Pback',\n",
       " 'sigma_10',\n",
       " 'RRT',\n",
       " 'sigma_05']"
      ]
     },
     "execution_count": 6,
     "metadata": {},
     "output_type": "execute_result"
    }
   ],
   "source": [
    "os.listdir(figpath)"
   ]
  },
  {
   "cell_type": "code",
   "execution_count": null,
   "id": "b5758c03",
   "metadata": {},
   "outputs": [],
   "source": []
  }
 ],
 "metadata": {
  "kernelspec": {
   "display_name": "GOOGLE",
   "language": "python",
   "name": "google"
  },
  "language_info": {
   "codemirror_mode": {
    "name": "ipython",
    "version": 3
   },
   "file_extension": ".py",
   "mimetype": "text/x-python",
   "name": "python",
   "nbconvert_exporter": "python",
   "pygments_lexer": "ipython3",
   "version": "3.9.15"
  }
 },
 "nbformat": 4,
 "nbformat_minor": 5
}
